<?xml version="1.0" standalone="no"?><svg xmlns="http://www.w3.org/2000/svg" viewBox="0 0 1440 320"><path fill="#0099ff" fill-opacity="1" d="M0,192L26.7,170.7C53.3,149,107,107,160,101.3C213.3,96,267,128,320,160C373.3,192,427,224,480,213.3C533.3,203,587,149,640,122.7C693.3,96,747,96,800,90.7C853.3,85,907,75,960,80C1013.3,85,1067,107,1120,128C1173.3,149,1227,171,1280,176C1333.3,181,1387,171,1413,165.3L1440,160L1440,320L1413.3,320C1386.7,320,1333,320,1280,320C1226.7,320,1173,320,1120,320C1066.7,320,1013,320,960,320C906.7,320,853,320,800,320C746.7,320,693,320,640,320C586.7,320,533,320,480,320C426.7,320,373,320,320,320C266.7,320,213,320,160,320C106.7,320,53,320,27,320L0,320Z"></path></svg>