<svg xmlns="http://www.w3.org/2000/svg" version="1.1" xmlns:xlink="http://www.w3.org/1999/xlink" xmlns:svgjs="http://svgjs.dev/svgjs" viewBox="0 0 1180 820" style="overflow: hidden; height: 85vh;" class="overflow-hidden rounded-md drop-shadow-lg transition duration-300"><rect width="1180" height="820" fill="#2d1a8a"/><g clip-path="url(&quot;#SvgjsClipPath1355&quot;)"><g transform="matrix(1.15,0,0,1.15,-88.5,-61.49999999999994)"><path d="M0,-820C0,-738,0,-492,0,-328C0,-164,0,0,0,164C0,328,0,492,0,656C0,820,0,984,0,1148C0,1312,0,1558,0,1640L 1180 1640 L 1180 -820 Z" fill="url(&quot;#SvgjsLinearGradient1350&quot;)"/><path d="M236,-820C236,-738,236,-492,236,-328C236,-164,236,0,236,164C236,328,236,492,236,656C236,820,236,984,236,1148C236,1312,236,1558,236,1640L 1180 1640 L 1180 -820 Z" fill="url(&quot;#SvgjsLinearGradient1351&quot;)"/><path d="M472,-820C472,-768.75,472,-615,472,-512.5C472,-410,472,-307.5,472,-205C472,-102.5,472,0,472,102.5C472,205,472,307.5,472,410C472,512.5,472,615,472,717.5C472,820,472,922.5,472,1025C472,1127.5,472,1230,472,1332.5C472,1435,472,1588.75,472,1640L 1180 1640 L 1180 -820 Z" fill="url(&quot;#SvgjsLinearGradient1352&quot;)"/><path d="M708,-820C708,-717.5,708,-410,708,-205C708,0,708,205,708,410C708,615,708,820,708,1025C708,1230,708,1537.5,708,1640L 1180 1640 L 1180 -820 Z" fill="url(&quot;#SvgjsLinearGradient1353&quot;)"/><path d="M944,-820C944,-751.6666666666666,944,-546.6666666666667,944,-410.00000000000006C944,-273.33333333333337,944,-136.66666666666677,944,-1.1368683772161603e-13C944,136.66666666666654,944,273.33333333333337,944,410C944,546.6666666666666,944,683.3333333333333,944,819.9999999999999C944,956.6666666666665,944,1093.3333333333333,944,1230C944,1366.6666666666667,944,1571.6666666666667,944,1640L 1180 1640 L 1180 -820 Z" fill="url(&quot;#SvgjsLinearGradient1354&quot;)"/></g></g><defs><linearGradient x1="0.1" y1="0" x2="0" y2="1" id="SvgjsLinearGradient1350"><stop stop-color="#2d1a8a" offset="0"/><stop stop-color="#1a1a8a" offset="0"/></linearGradient><linearGradient x1="0.1" y1="0" x2="0" y2="1" id="SvgjsLinearGradient1351"><stop stop-color="#28177b" offset="0"/><stop stop-color="#17177b" offset="0.2"/></linearGradient><linearGradient x1="0.1" y1="0" x2="0" y2="1" id="SvgjsLinearGradient1352"><stop stop-color="#23146c" offset="0"/><stop stop-color="#14146c" offset="0.4"/></linearGradient><linearGradient x1="0.1" y1="0" x2="0" y2="1" id="SvgjsLinearGradient1353"><stop stop-color="#1e125d" offset="0"/><stop stop-color="#12135d" offset="0.6"/></linearGradient><linearGradient x1="0.1" y1="0" x2="0" y2="1" id="SvgjsLinearGradient1354"><stop stop-color="#190f4e" offset="0"/><stop stop-color="#0f0f4e" offset="0.8"/></linearGradient><clipPath id="SvgjsClipPath1355"><rect width="1180" height="820"/></clipPath></defs></svg>